<?xml version="1.0" encoding="utf-8"?>
<!-- Generator: Adobe Illustrator 16.0.0, SVG Export Plug-In . SVG Version: 6.00 Build 0)  -->
<!DOCTYPE svg PUBLIC "-//W3C//DTD SVG 1.1//EN" "http://www.w3.org/Graphics/SVG/1.1/DTD/svg11.dtd">
<svg version="1.1" id="Capa_1" xmlns="http://www.w3.org/2000/svg" xmlns:xlink="http://www.w3.org/1999/xlink" x="0px" y="0px"
	 width="960px" height="560px" viewBox="0 0 960 560" enable-background="new 0 0 960 560" xml:space="preserve">
<g>
	<path fill-rule="evenodd" clip-rule="evenodd" fill="#FFFFFF" d="M100.11,244.204c0,0,15.031,52.403,67.36,76.871
		c48.579,22.706,96.788,2.6,96.788,2.6l29.77,39.081c0,0-40.942,24.199-96.398,19.371c-55.467-4.858-83.101-41.442-93.801-67.76
		C92.111,285.522,100.11,244.204,100.11,244.204z"/>
	<path fill-rule="evenodd" clip-rule="evenodd" fill="#FFFFFF" d="M295.517,313.483c1.2-0.421,16.566-5.484,29.806-13.178
		c11.512-6.708,17.461-11.805,29.37-20.919c0,0,4.388,47.461,50.534,47.461c30.245,0,41.419-16.949,41.419-16.949l36.849,45.227
		c0,0-21.77,28.186-82.266,28.186C343.817,383.311,304.595,345.451,295.517,313.483z"/>
	<path fill-rule="evenodd" clip-rule="evenodd" fill="#FFFFFF" d="M487.962,192.951c0,0-26.987-32.948-85.244-32.948
		c-67.931,0-113.71,50.328-113.71,107.292c0,16.747,1.685,27.62,1.685,27.62s20.692-7.342,37.583-18.314
		c17.773-11.553,30.522-26.614,30.522-26.614s11.812-34.785,46.436-34.785c19.646,0,30.71,9.651,30.71,9.651
		s11.717-9.312,24.107-16.738C472.405,200.69,487.962,192.951,487.962,192.951z"/>
	<path fill-rule="evenodd" clip-rule="evenodd" fill="#FFFFFF" d="M171.945,301.719c0,0-9.397-17.043-7.451-37.598
		c1.882-19.766,16.293-48.634,50.161-48.849c29.229-0.196,40.197,17.953,40.197,17.953l38.084-44.222
		c0,0-28.321-28.981-77.442-28.981c-46.436,0-82.209,21.65-103.339,54.87c-1.314,2.081,3.215,29.088,15.868,48.477
		C145.139,289.609,171.945,301.719,171.945,301.719z"/>
	<path fill-rule="evenodd" clip-rule="evenodd" fill="#FFFFFF" d="M503.593,186.695c0,0,9.675-5.213,25.31-9.3
		c15.647-4.092,27.497-6.977,37.227-7.072c0,5.531,0,127.669,0,127.669s2.975,30.517,33.139,30.517
		c32.557,0,34.608-29.409,34.608-29.409s0-126.083,0-128.777c7.635,0.365,16.661,1.394,33.13,5.487
		c11.752,2.93,30.438,9.765,30.438,9.765v116.144c0,0-1.116,80.469-96.914,81.017c-95.814,0.575-96.938-81.017-96.938-81.017
		V186.695z"/>
</g>
</svg>
