<?xml version="1.0" encoding="utf-8"?>
<!-- Generator: Adobe Illustrator 16.0.0, SVG Export Plug-In . SVG Version: 6.00 Build 0)  -->
<!DOCTYPE svg PUBLIC "-//W3C//DTD SVG 1.1//EN" "http://www.w3.org/Graphics/SVG/1.1/DTD/svg11.dtd">
<svg version="1.1" id="Capa_1" xmlns="http://www.w3.org/2000/svg" xmlns:xlink="http://www.w3.org/1999/xlink" x="0px" y="0px"
	 width="960px" height="560px" viewBox="0 0 960 560" enable-background="new 0 0 960 560" xml:space="preserve">
<g>
	<path fill-rule="evenodd" clip-rule="evenodd" fill="#FFFFFF" d="M362.244,263.421c0,0,4.509,15.721,20.208,23.061
		c14.574,6.812,29.036,0.78,29.036,0.78l8.931,11.724c0,0-12.283,7.261-28.919,5.812c-16.64-1.457-24.931-12.433-28.141-20.328
		C359.844,275.817,362.244,263.421,362.244,263.421z"/>
	<path fill-rule="evenodd" clip-rule="evenodd" fill="#FFFFFF" d="M420.866,284.205c0.36-0.126,4.97-1.646,8.942-3.953
		c3.454-2.012,5.238-3.542,8.811-6.276c0,0,1.316,14.238,15.16,14.238c9.074,0,12.426-5.084,12.426-5.084l11.055,13.567
		c0,0-6.531,8.456-24.68,8.456C435.356,305.153,423.59,293.796,420.866,284.205z"/>
	<path fill-rule="evenodd" clip-rule="evenodd" fill="#FFFFFF" d="M478.6,248.045c0,0-8.096-9.884-25.573-9.884
		c-20.379,0-34.113,15.099-34.113,32.188c0,5.024,0.506,8.286,0.506,8.286s6.208-2.202,11.275-5.494
		c5.332-3.465,9.157-7.984,9.157-7.984s3.543-10.436,13.931-10.436c5.894,0,9.213,2.896,9.213,2.896s3.515-2.794,7.232-5.022
		C473.933,250.367,478.6,248.045,478.6,248.045z"/>
	<path fill-rule="evenodd" clip-rule="evenodd" fill="#FFFFFF" d="M383.795,280.675c0,0-2.819-5.112-2.236-11.279
		c0.565-5.93,4.888-14.59,15.049-14.654c8.769-0.059,12.059,5.386,12.059,5.386l11.425-13.267c0,0-8.496-8.694-23.233-8.694
		c-13.931,0-24.663,6.495-31.001,16.461c-0.395,0.624,0.964,8.727,4.76,14.543C375.753,277.042,383.795,280.675,383.795,280.675z"/>
	<path fill-rule="evenodd" clip-rule="evenodd" fill="#FFFFFF" d="M483.289,246.168c0,0,2.902-1.564,7.593-2.79
		c4.694-1.228,8.249-2.093,11.168-2.122c0,1.66,0,38.301,0,38.301s0.893,9.155,9.941,9.155c9.767,0,10.383-8.823,10.383-8.823
		s0-37.825,0-38.633c2.29,0.109,4.998,0.418,9.938,1.646c3.525,0.879,9.132,2.93,9.132,2.93v34.843c0,0-0.335,24.141-29.074,24.305
		c-28.744,0.173-29.081-24.305-29.081-24.305V246.168z"/>
</g>
</svg>
