<?xml version="1.0" encoding="utf-8"?>
<!-- Generator: Adobe Illustrator 16.0.0, SVG Export Plug-In . SVG Version: 6.00 Build 0)  -->
<!DOCTYPE svg PUBLIC "-//W3C//DTD SVG 1.1//EN" "http://www.w3.org/Graphics/SVG/1.1/DTD/svg11.dtd">
<svg version="1.1" id="Capa_1" xmlns="http://www.w3.org/2000/svg" xmlns:xlink="http://www.w3.org/1999/xlink" x="0px" y="0px"
	 width="960px" height="560px" viewBox="0 0 960 560" enable-background="new 0 0 960 560" xml:space="preserve">
<g>
	<path fill-rule="evenodd" clip-rule="evenodd" fill="#FFFFFF" d="M526.248,263.789c0,0,4.308,15.019,19.305,22.031
		c13.923,6.508,27.74,0.745,27.74,0.745l8.531,11.2c0,0-11.733,6.936-27.627,5.552c-15.897-1.392-23.817-11.877-26.884-19.42
		C523.955,275.631,526.248,263.789,526.248,263.789z"/>
	<path fill-rule="evenodd" clip-rule="evenodd" fill="#FFFFFF" d="M582.252,283.645c0.344-0.121,4.747-1.572,8.542-3.777
		c3.3-1.922,5.005-3.383,8.418-5.996c0,0,1.257,13.603,14.482,13.603c8.669,0,11.871-4.857,11.871-4.857l10.561,12.962
		c0,0-6.239,8.078-23.577,8.078C596.095,303.657,584.854,292.807,582.252,283.645z"/>
	<path fill-rule="evenodd" clip-rule="evenodd" fill="#FFFFFF" d="M637.406,249.1c0,0-7.734-9.442-24.431-9.442
		c-19.47,0-32.59,14.424-32.59,30.75c0,4.8,0.483,7.916,0.483,7.916s5.93-2.104,10.771-5.249c5.094-3.311,8.747-7.627,8.747-7.627
		s3.386-9.969,13.309-9.969c5.631,0,8.802,2.766,8.802,2.766s3.358-2.669,6.909-4.797C632.948,251.318,637.406,249.1,637.406,249.1z
		"/>
	<path fill-rule="evenodd" clip-rule="evenodd" fill="#FFFFFF" d="M546.836,280.272c0,0-2.693-4.884-2.136-10.775
		c0.539-5.665,4.67-13.938,14.376-14c8.377-0.056,11.521,5.146,11.521,5.146l10.914-12.674c0,0-8.116-8.306-22.194-8.306
		c-13.309,0-23.562,6.205-29.617,15.726c-0.377,0.596,0.921,8.336,4.548,13.893C539.153,276.802,546.836,280.272,546.836,280.272z"
		/>
	<path fill-rule="evenodd" clip-rule="evenodd" fill="#FFFFFF" d="M641.887,247.307c0,0,2.772-1.494,7.253-2.665
		c4.485-1.173,7.881-2,10.67-2.027c0,1.585,0,36.59,0,36.59s0.853,8.747,9.497,8.747c9.331,0,9.919-8.429,9.919-8.429
		s0-36.135,0-36.908c2.188,0.105,4.775,0.399,9.495,1.573c3.368,0.84,8.724,2.799,8.724,2.799v33.287c0,0-0.32,23.063-27.775,23.22
		c-27.461,0.165-27.782-23.22-27.782-23.22V247.307z"/>
</g>
</svg>
